<?xml version="1.0" encoding="utf-8"?>
<!-- Generator: Adobe Illustrator 16.0.0, SVG Export Plug-In . SVG Version: 6.00 Build 0)  -->
<!DOCTYPE svg PUBLIC "-//W3C//DTD SVG 1.1//EN" "http://www.w3.org/Graphics/SVG/1.1/DTD/svg11.dtd">
<svg version="1.1" id="Layer_1" xmlns="http://www.w3.org/2000/svg" xmlns:xlink="http://www.w3.org/1999/xlink" x="0px" y="0px"
	 width="1400px" height="980px" viewBox="0 0 1400 980" enable-background="new 0 0 1400 980" xml:space="preserve">
<g>
	<g>
		<g>
			<rect fill="#505777" width="1400" height="980"/>
		</g>
	</g>
	<g>
		<g>
			<path fill="#2DCDEC" d="M959.1,489.6c0-143.1-116-259.1-259.1-259.1c-143.1,0-259.1,116-259.1,259.1
				c0,123.8,86.9,227.3,203,252.9l49.1-194.6c3.6,3.7,8.1,6.2,13.1,7.2l-48,190.1c13.6,2.2,27.6,3.4,41.8,3.4
				c22.5,0,44.3-2.9,65.1-8.2l-46.8-185.5c1.3-0.3,2.7-0.7,4-1.3c3.6-1.6,6.5-3.9,9-6.6L779,736.4
				C883.4,703,959.1,605.1,959.1,489.6z"/>
			<path d="M700,751.3c-14,0-28.2-1.2-42.2-3.4c-0.7-0.1-1.3-0.5-1.7-1.1c-0.4-0.6-0.5-1.3-0.3-2.1L703,557c-3.1-1-5.9-2.4-8.5-4.4
				l-48.1,190.5c-0.3,1.4-1.7,2.2-3.1,1.9c-118.8-26.2-205.1-133.6-205.1-255.4C438.3,345.3,555.7,228,700,228
				c144.3,0,261.6,117.4,261.6,261.6c0,114.3-73.1,214.4-181.9,249.2c-0.7,0.2-1.4,0.1-2-0.2c-0.6-0.3-1.1-0.9-1.3-1.6l-46.7-185
				c-2,1.6-4.2,3-6.5,4c-0.6,0.3-1.3,0.5-1.9,0.7l46.2,183.1c0.3,1.4-0.5,2.8-1.9,3.1C744.3,748.5,722.2,751.3,700,751.3z
				 M661.4,743.2c33.9,5.1,68,3.5,100.5-4.6l-46.2-183c-0.3-1.4,0.5-2.8,1.9-3.1c1.2-0.3,2.4-0.6,3.6-1.1c3-1.3,5.8-3.3,8.1-5.9
				c0.6-0.7,1.6-1,2.5-0.8c0.9,0.2,1.7,1,1.9,1.9l47.1,186.7C886,698.2,956.5,600.7,956.5,489.6c0-141.4-115.1-256.5-256.5-256.5
				c-141.4,0-256.5,115.1-256.5,256.5c0,118.6,83.4,223.2,198.6,249.8l48.5-192.2c0.2-0.9,0.9-1.6,1.8-1.9c0.9-0.2,1.9,0,2.5,0.7
				c3.2,3.3,7.3,5.5,11.8,6.5c0.7,0.1,1.3,0.6,1.7,1.2c0.4,0.6,0.5,1.3,0.3,2L661.4,743.2z"/>
		</g>
		<g>
			
				<rect x="535.4" y="537.9" transform="matrix(0.9159 -0.4014 0.4014 0.9159 -177.0528 269.4447)" fill="#BCBEC0" width="38.4" height="38.8"/>
			<path d="M544.8,585.3c-0.3,0-0.6-0.1-0.9-0.2c-0.6-0.3-1.2-0.7-1.4-1.4l-15.6-35.5c-0.6-1.3,0-2.8,1.3-3.4l35.2-15.4
				c0.6-0.3,1.3-0.3,2,0c0.6,0.3,1.2,0.7,1.4,1.4l15.6,35.5c0.6,1.3,0,2.8-1.3,3.4l-35.2,15.4C545.5,585.3,545.1,585.3,544.8,585.3z
				 M532.6,548.5l13.5,30.8l30.4-13.3L563,535.2L532.6,548.5z"/>
		</g>
		<g>
			<polygon fill="#E6E7E8" points="835.7,474 586.8,583.1 557.4,516.1 806.3,407 			"/>
			<path d="M586.8,585.7c-1,0-1.9-0.6-2.4-1.6l-29.3-67c-0.3-0.6-0.3-1.3,0-2c0.3-0.6,0.7-1.2,1.4-1.4l248.9-109
				c0.6-0.3,1.3-0.3,2,0s1.2,0.7,1.4,1.4l29.3,67c0.6,1.3,0,2.8-1.3,3.4l-248.9,109C587.5,585.6,587.1,585.7,586.8,585.7z
				 M560.9,517.4l27.3,62.2l244.1-107L805,410.5L560.9,517.4z"/>
		</g>
		<g>
			<path fill="#BCBEC0" d="M873.3,462.2c1.5,3.5-0.1,7.6-3.6,9.1l-23.3,10.2c-3.5,1.5-7.6-0.1-9.1-3.6l-32.8-74.9
				c-1.5-3.5,0.1-7.6,3.6-9.1l23.3-10.2c3.5-1.5,7.6,0.1,9.1,3.6L873.3,462.2z"/>
			<path d="M843.7,484.7c-3.8,0-7.2-2.2-8.7-5.7l-32.8-74.9c-1-2.3-1.1-4.9-0.1-7.3c0.9-2.4,2.7-4.2,5-5.3l23.3-10.2
				c4.7-2.1,10.5,0.2,12.5,4.9l32.8,74.9c1,2.3,1.1,4.9,0.1,7.3c-0.9,2.4-2.7,4.2-5,5.2l-23.3,10.2
				C846.3,484.5,845.1,484.7,843.7,484.7z M834.2,385.8c-0.6,0-1.2,0.1-1.7,0.4l-23.3,10.2c-2.2,1-3.2,3.5-2.2,5.7l32.8,74.9
				c0.9,2.1,3.6,3.2,5.7,2.2l23.3-10.2c1.1-0.5,1.9-1.3,2.3-2.4c0.4-1.1,0.4-2.3-0.1-3.3l-32.8-74.9
				C837.5,386.8,835.9,385.8,834.2,385.8z"/>
		</g>
		<g>
			<path fill="#FFFFFF" d="M546.1,585.8c0.8,1.9,0,4.2-2,5.1l-12.9,5.7c-1.9,0.8-4.2,0-5.1-2l-18.2-41.6c-0.8-1.9,0-4.2,2-5.1
				l12.9-5.7c1.9-0.8,4.2,0,5.1,2L546.1,585.8z"/>
			<path d="M529.6,599.4c-2.6,0-4.9-1.5-5.9-3.8L505.5,554c-0.7-1.6-0.7-3.3-0.1-4.9c0.6-1.6,1.8-2.9,3.4-3.6l12.9-5.7
				c3.2-1.4,7.1,0.2,8.5,3.3l18.2,41.6c1.4,3.3-0.1,7.1-3.3,8.5l-12.9,5.7C531.4,599.2,530.5,599.4,529.6,599.4z M524.3,544.5
				l-13.4,5.8c-0.4,0.2-0.6,0.5-0.7,0.7c-0.1,0.2-0.2,0.6,0,1l18.2,41.6c0.3,0.6,1,0.9,1.7,0.6l12.9-5.7c0.6-0.3,0.9-1,0.6-1.7
				l-18.2-41.6C525.3,544.8,524.8,544.5,524.3,544.5z"/>
		</g>
		<g>
			<path d="M831,466c-1,0-1.9-0.6-2.4-1.5c-0.6-1.3,0-2.8,1.3-3.4l26.9-11.8c1.3-0.6,2.8,0,3.4,1.3c0.6,1.3,0,2.8-1.3,3.4
				l-26.9,11.8C831.7,466,831.4,466,831,466z"/>
		</g>
		<g>
			<path d="M579.9,569.9c-1,0-1.9-0.6-2.4-1.5c-0.6-1.3,0-2.8,1.3-3.4l66.4-29.1c1.3-0.6,2.8,0,3.4,1.3c0.6,1.3,0,2.8-1.3,3.4
				l-66.4,29.1C580.6,569.9,580.3,569.9,579.9,569.9z"/>
		</g>
		<g>
			<path d="M667.2,531.7c-1,0-1.9-0.6-2.4-1.5c-0.6-1.3,0-2.8,1.3-3.4l32.8-14.4c1.3-0.6,2.8,0,3.4,1.3c0.6,1.3,0,2.8-1.3,3.4
				l-32.8,14.4C667.9,531.6,667.6,531.7,667.2,531.7z"/>
		</g>
		<g>
			<path fill="#BCBEC0" d="M693.1,547.9L644,742.5c4.7,1,9.4,2,14.2,2.7l48-190.1C701.2,554.1,696.7,551.6,693.1,547.9z"/>
			<path d="M658.2,747.9c-0.1,0-0.3,0-0.4,0c-4.7-0.8-9.5-1.7-14.4-2.8c-0.7-0.2-1.3-0.6-1.6-1.2c-0.4-0.6-0.5-1.3-0.3-2l49.1-194.6
				c0.2-0.9,0.9-1.6,1.8-1.9c0.9-0.2,1.9,0,2.5,0.7c3.2,3.3,7.3,5.5,11.8,6.5c0.7,0.1,1.3,0.6,1.7,1.2c0.4,0.6,0.5,1.3,0.3,2
				l-48,190.1C660.4,747.1,659.4,747.9,658.2,747.9z M647.1,740.6c3.1,0.6,6.1,1.2,9.1,1.8L703,557c-3.1-1-5.9-2.4-8.5-4.4
				L647.1,740.6z"/>
		</g>
		<g>
			<path fill="#BCBEC0" d="M722.2,553.6c-1.3,0.6-2.6,0.9-4,1.3l46.8,185.5c4.7-1.2,9.3-2.6,13.9-4.1L731.2,547
				C728.7,549.8,725.8,552.1,722.2,553.6z"/>
			<path d="M765.1,743c-0.5,0-0.9-0.1-1.3-0.4c-0.6-0.4-1-0.9-1.2-1.6l-46.8-185.5c-0.3-1.4,0.5-2.8,1.9-3.1
				c1.2-0.3,2.4-0.6,3.6-1.1c3-1.3,5.8-3.3,8.1-5.9c0.6-0.7,1.6-1,2.5-0.8c0.9,0.2,1.7,1,1.9,1.9l47.8,189.3
				c0.3,1.3-0.4,2.7-1.7,3.1c-5.1,1.6-9.7,3-14,4.1C765.5,743,765.3,743,765.1,743z M721.4,556.7l45.6,180.6
				c2.8-0.8,5.8-1.6,8.9-2.6L729.8,552c-2,1.6-4.2,3-6.5,4C722.6,556.3,722,556.5,721.4,556.7z"/>
		</g>
		<g>
			<path fill="#FFFFFF" d="M735.7,519.2c-0.2-0.4-0.4-0.7-0.6-1.1L687.4,539c0.2,0.4,0.2,0.8,0.4,1.2c1.3,3,3.2,5.6,5.3,7.8
				c3.6,3.7,8.1,6.2,13.1,7.2c3.9,0.9,8,0.8,12.1-0.3c1.3-0.3,2.7-0.7,4-1.3c3.6-1.6,6.5-3.9,9-6.6
				C737.8,539.6,739.9,528.8,735.7,519.2z"/>
			<path d="M711.7,558.3c-2,0-4.1-0.2-6-0.7c-5.5-1.2-10.4-3.9-14.4-7.9c-2.5-2.6-4.5-5.5-5.9-8.5c-0.1-0.3-0.2-0.6-0.3-1
				c-0.5-1.3,0-3.1,1.3-3.6l47.7-20.9c1.3-0.6,2.8,0,3.4,1.2c0.3,0.6,0.5,0.9,0.6,1.2c4.5,10.2,2.5,22.2-4.9,30.6
				c-2.8,3.2-6.1,5.6-9.9,7.2c-1.5,0.6-2.9,1-4.3,1.4C716.5,558,714.1,558.3,711.7,558.3z M690.8,540.3c1.1,2.1,2.5,4,4.2,5.8
				c3.2,3.3,7.3,5.5,11.8,6.5c3.6,0.8,7.3,0.7,10.9-0.2c1.2-0.3,2.4-0.6,3.6-1.1c3-1.3,5.8-3.3,8.1-5.9c5.8-6.5,7.5-15.7,4.6-23.8
				L690.8,540.3z"/>
		</g>
		<g>
			<g>
				<path d="M846.4,585.7H831c-1.4,0-2.6-1.2-2.6-2.6c0-1.4,1.2-2.6,2.6-2.6h15.3c1.4,0,2.6,1.2,2.6,2.6
					C848.9,584.5,847.8,585.7,846.4,585.7z"/>
			</g>
			<g>
				<path d="M879.2,585.7h-15.3c-1.4,0-2.6-1.2-2.6-2.6c0-1.4,1.2-2.6,2.6-2.6h15.3c1.4,0,2.6,1.2,2.6,2.6
					C881.7,584.5,880.6,585.7,879.2,585.7z"/>
			</g>
			<g>
				<path d="M855.1,576.9c-1.4,0-2.6-1.2-2.6-2.6V559c0-1.4,1.2-2.6,2.6-2.6c1.4,0,2.6,1.2,2.6,2.6v15.3
					C857.7,575.8,856.5,576.9,855.1,576.9z"/>
			</g>
			<g>
				<path d="M855.1,609.7c-1.4,0-2.6-1.2-2.6-2.6v-15.3c0-1.4,1.2-2.6,2.6-2.6c1.4,0,2.6,1.2,2.6,2.6v15.3
					C857.7,608.6,856.5,609.7,855.1,609.7z"/>
			</g>
			<g>
				<path fill="#FFF6BB" d="M863.8,583.1c0,4.8-3.9,8.7-8.7,8.7c-4.8,0-8.7-3.9-8.7-8.7s3.9-8.7,8.7-8.7
					C859.9,574.3,863.8,578.2,863.8,583.1z"/>
				<path d="M855.1,594.4c-6.2,0-11.3-5.1-11.3-11.3c0-6.2,5.1-11.3,11.3-11.3c6.2,0,11.3,5.1,11.3,11.3
					C866.4,589.3,861.3,594.4,855.1,594.4z M855.1,576.9c-3.4,0-6.1,2.8-6.1,6.1c0,3.4,2.8,6.1,6.1,6.1c3.4,0,6.1-2.8,6.1-6.1
					C861.2,579.7,858.5,576.9,855.1,576.9z"/>
			</g>
		</g>
		<g>
			<g>
				<path d="M548.7,409.6h-15.3c-1.4,0-2.6-1.2-2.6-2.6c0-1.4,1.2-2.6,2.6-2.6h15.3c1.4,0,2.6,1.2,2.6,2.6
					C551.3,408.5,550.1,409.6,548.7,409.6z"/>
			</g>
			<g>
				<path d="M581.5,409.6h-15.3c-1.4,0-2.6-1.2-2.6-2.6c0-1.4,1.2-2.6,2.6-2.6h15.3c1.4,0,2.6,1.2,2.6,2.6
					C584.1,408.5,582.9,409.6,581.5,409.6z"/>
			</g>
			<g>
				<path d="M557.4,400.9c-1.4,0-2.6-1.2-2.6-2.6V383c0-1.4,1.2-2.6,2.6-2.6c1.4,0,2.6,1.2,2.6,2.6v15.3
					C560,399.8,558.9,400.9,557.4,400.9z"/>
			</g>
			<g>
				<path d="M557.4,433.7c-1.4,0-2.6-1.2-2.6-2.6v-15.3c0-1.4,1.2-2.6,2.6-2.6c1.4,0,2.6,1.2,2.6,2.6v15.3
					C560,432.5,558.9,433.7,557.4,433.7z"/>
			</g>
			<g>
				<circle fill="#FFF6BB" cx="557.4" cy="407" r="8.7"/>
				<path d="M557.4,418.4c-6.2,0-11.3-5.1-11.3-11.3c0-6.2,5.1-11.3,11.3-11.3s11.3,5.1,11.3,11.3
					C568.8,413.3,563.7,418.4,557.4,418.4z M557.4,400.9c-3.4,0-6.1,2.8-6.1,6.1c0,3.4,2.8,6.1,6.1,6.1c3.4,0,6.1-2.8,6.1-6.1
					C563.6,403.7,560.8,400.9,557.4,400.9z"/>
			</g>
		</g>
		<g>
			<path fill="#FFF6BB" d="M649.9,321.4c-6.8-15-5.1-31.6,3-44.6c-22.4,12.4-32,40.1-21.2,63.8c11.3,25,40.7,36.1,65.7,24.8
				c12.1-5.5,20.9-15.2,25.5-26.5c-3,2.4-6.4,4.5-10.1,6.2C688.8,355.9,660.7,345.3,649.9,321.4z"/>
			<path d="M676.9,372.4c-20.5,0-39.2-12.1-47.6-30.7c-11.1-24.6-1.3-54.1,22.4-67.2c1-0.6,2.3-0.4,3.1,0.5c0.8,0.9,0.9,2.1,0.3,3.1
				c-7.9,12.8-9,28.5-2.8,42.2c7.2,16,23.3,26.4,40.9,26.4c6.4,0,12.6-1.3,18.5-4c3.3-1.5,6.5-3.5,9.5-5.9c0.9-0.7,2.2-0.8,3.2-0.1
				c0.9,0.7,1.3,2,0.9,3.1c-5.1,12.5-14.6,22.4-26.8,27.9C691.5,370.9,684.3,372.4,676.9,372.4z M646.2,284.6
				c-15.4,13.3-20.9,35.8-12.2,55c7.6,16.8,24.4,27.7,42.9,27.7c6.7,0,13.2-1.4,19.3-4.2c8-3.6,14.8-9.4,19.6-16.6
				c-0.7,0.3-1.4,0.7-2,1c-6.5,3-13.5,4.5-20.6,4.5c-19.6,0-37.5-11.6-45.6-29.4C642.1,310.4,641.7,296.8,646.2,284.6z"/>
		</g>
	</g>
	<g>
		<g>
			<path fill="#FCFFEB" d="M1073.7,371.8c-18.4,0-35.7-7.2-48.7-20.2c-26.8-26.8-26.8-70.5,0-97.3c13-13,30.3-20.2,48.7-20.2
				s35.7,7.2,48.7,20.2c26.8,26.8,26.8,70.5,0,97.3C1109.4,364.7,1092.1,371.8,1073.7,371.8z M1073.7,239.4c-17,0-33,6.6-45,18.6
				c-24.8,24.8-24.8,65.2,0,90c12,12,28,18.6,45,18.6s33-6.6,45-18.6c24.8-24.8,24.8-65.2,0-90
				C1106.7,246,1090.7,239.4,1073.7,239.4z"/>
		</g>
		<g>
			<path fill="#FCFFEB" d="M1246.4,515.7c-0.5,0-0.9-0.1-1.4-0.4l-146.1-89.4c-0.7-0.4-1.1-1.1-1.2-1.9c-0.1-0.8,0.2-1.6,0.7-2.1
				l94.1-94.1c0.6-0.6,1.3-0.8,2.1-0.7c0.8,0.1,1.5,0.5,1.9,1.2l89.4,146.1c0.6,1,0.5,2.3-0.4,3.2l-37.5,37.4
				C1247.7,515.4,1247.1,515.7,1246.4,515.7z M1104.4,423.2l141.6,86.6l34.6-34.6l-86.7-141.6L1104.4,423.2z"/>
		</g>
		<g>
			<path fill="#FCFFEB" d="M953.1,279.1c-0.1,0-0.2,0-0.3,0c-0.8-0.1-1.5-0.5-1.9-1.2l-89.4-146.1c-0.6-1-0.5-2.3,0.4-3.2l37.4-37.4
				c0.8-0.9,2.2-1,3.2-0.4l146.1,89.4c0.7,0.4,1.1,1.1,1.2,1.9c0.1,0.8-0.2,1.6-0.7,2.1l-94.1,94.1
				C954.4,278.8,953.8,279.1,953.1,279.1z M866.9,130.7l86.6,141.6l89.5-89.5L901.5,96.2L866.9,130.7z"/>
		</g>
		<g>
			<path fill="#FCFFEB" d="M1064.4,354c-0.7,0-1.3-0.3-1.8-0.8l-39.1-39.1c-0.5-0.5-0.8-1.1-0.8-1.8c0-0.7,0.3-1.3,0.8-1.8
				l23.1-23.1c1-1,2.6-1,3.7,0l39.1,39.1c0.5,0.5,0.8,1.1,0.8,1.8s-0.3,1.3-0.8,1.8l-23.1,23.1C1065.8,353.8,1065.1,354,1064.4,354z
				 M1028.9,312.3l35.5,35.5l19.4-19.4l-35.5-35.5L1028.9,312.3z"/>
		</g>
		<g>
			<path fill="#FCFFEB" d="M1092.6,310.2c-0.7,0-1.3-0.3-1.8-0.8l-23.4-23.4c-1-1-1-2.6,0-3.7c1-1,2.6-1,3.7,0l23.4,23.4
				c1,1,1,2.6,0,3.7C1093.9,309.9,1093.3,310.2,1092.6,310.2z"/>
		</g>
		<g>
			<path fill="#FCFFEB" d="M1103.7,299c-0.7,0-1.3-0.3-1.8-0.8l-23.4-23.4c-1-1-1-2.6,0-3.7c1-1,2.6-1,3.7,0l23.4,23.4
				c1,1,1,2.6,0,3.7C1105.1,298.8,1104.4,299,1103.7,299z"/>
		</g>
		<g>
			<path fill="#FCFFEB" d="M1114.9,287.9c-0.7,0-1.3-0.3-1.8-0.8l-23.4-23.4c-1-1-1-2.6,0-3.7c1-1,2.6-1,3.7,0l23.4,23.4
				c1,1,1,2.6,0,3.7C1116.2,287.6,1115.6,287.9,1114.9,287.9z"/>
		</g>
		<g>
			<g>
				<path fill="#FCFFEB" d="M1212.9,444.8c-0.7,0-1.3-0.3-1.8-0.8l-65.6-65.6c-1-1-1-2.6,0-3.7c1-1,2.6-1,3.7,0l65.6,65.6
					c1,1,1,2.6,0,3.7C1214.2,444.5,1213.6,444.8,1212.9,444.8z"/>
			</g>
			<g>
				<path fill="#FCFFEB" d="M1199.1,458.6c-0.7,0-1.3-0.3-1.8-0.8c-1-1-1-2.6,0-3.7l27.7-27.7c1-1,2.6-1,3.7,0c1,1,1,2.6,0,3.7
					l-27.7,27.7C1200.4,458.3,1199.8,458.6,1199.1,458.6z"/>
			</g>
		</g>
		<g>
			<g>
				<path fill="#FCFFEB" d="M1000.1,232c-0.7,0-1.3-0.3-1.8-0.8l-65.6-65.6c-1-1-1-2.6,0-3.7c1-1,2.6-1,3.7,0l65.6,65.6
					c1,1,1,2.6,0,3.7C1001.5,231.7,1000.8,232,1000.1,232z"/>
			</g>
			<g>
				<path fill="#FCFFEB" d="M920.7,180.2c-0.7,0-1.3-0.3-1.8-0.8c-1-1-1-2.6,0-3.7l27.7-27.7c1-1,2.6-1,3.7,0c1,1,1,2.6,0,3.7
					l-27.7,27.7C922.1,180,921.4,180.2,920.7,180.2z"/>
			</g>
		</g>
	</g>
	<g>
		<g>
			<path fill="#FCFFEB" d="M278.6,645.4c-1.1,0-2.2-0.8-2.5-1.9l-38.1-144l-38.1,144c-0.4,1.4-1.8,2.2-3.2,1.8
				c-1.4-0.4-2.2-1.8-1.8-3.2l40.6-153.5c0.6-2.3,4.4-2.3,5,0l40.6,153.5c0.4,1.4-0.5,2.8-1.8,3.2
				C279,645.4,278.8,645.4,278.6,645.4z"/>
		</g>
		<g>
			<path fill="#FCFFEB" d="M238,477.9c-17.5,0-31.7-14.2-31.7-31.7c0-17.5,14.2-31.7,31.7-31.7c17.5,0,31.7,14.2,31.7,31.7
				C269.7,463.6,255.5,477.9,238,477.9z M238,419.6c-14.6,0-26.6,11.9-26.6,26.6c0,14.6,11.9,26.6,26.6,26.6
				c14.6,0,26.6-11.9,26.6-26.6C264.5,431.5,252.6,419.6,238,419.6z"/>
		</g>
		<g>
			<path fill="#FCFFEB" d="M275.7,509.6c-0.9,0-1.7-0.4-2.2-1.2c-0.8-1.2-0.4-2.8,0.8-3.6c4.5-2.8,8.6-6.1,12.4-9.9
				c13-13,20.2-30.4,20.2-48.8c0-18.4-7.2-35.8-20.2-48.8c-13-13-30.4-20.2-48.8-20.2c-18.4,0-35.8,7.2-48.8,20.2
				c-13,13-20.2,30.4-20.2,48.8c0,18.4,7.2,35.8,20.2,48.8c3.8,3.8,7.9,7.1,12.4,9.9c1.2,0.8,1.6,2.3,0.8,3.6
				c-0.8,1.2-2.4,1.6-3.6,0.8c-4.8-3-9.3-6.6-13.3-10.6c-14-14-21.7-32.6-21.7-52.5s7.7-38.4,21.7-52.5c14-14,32.6-21.7,52.5-21.7
				c19.8,0,38.5,7.7,52.5,21.7c14,14,21.7,32.6,21.7,52.5c0,19.8-7.7,38.4-21.7,52.5c-4.1,4.1-8.5,7.6-13.3,10.6
				C276.7,509.5,276.2,509.6,275.7,509.6z"/>
		</g>
		<g>
			<path fill="#FCFFEB" d="M286.8,541c-0.9,0-1.8-0.5-2.3-1.4c-0.7-1.3-0.2-2.8,1.1-3.5c8.9-4.7,17.1-10.8,24.3-18
				c19.2-19.2,29.8-44.8,29.8-72c0-27.2-10.6-52.7-29.8-72c-19.2-19.2-44.8-29.8-72-29.8c-27.2,0-52.7,10.6-72,29.8
				c-39.7,39.7-39.7,104.2,0,143.9c7.2,7.2,15.4,13.3,24.3,18c1.3,0.7,1.7,2.2,1.1,3.5c-0.7,1.3-2.2,1.7-3.5,1.1
				c-9.4-5-18-11.3-25.6-18.9c-20.2-20.2-31.3-47.1-31.3-75.6s11.1-55.4,31.3-75.6c20.2-20.2,47.1-31.3,75.6-31.3
				c28.6,0,55.4,11.1,75.6,31.3c20.2,20.2,31.3,47.1,31.3,75.6c0,28.6-11.1,55.4-31.3,75.6c-7.6,7.6-16.2,13.9-25.6,18.9
				C287.6,540.9,287.2,541,286.8,541z"/>
		</g>
		<g>
			<path fill="#FCFFEB" d="M298.1,573c-1,0-1.9-0.5-2.3-1.5c-0.6-1.3-0.1-2.8,1.2-3.5c13.6-6.6,26-15.4,36.7-26.2
				c25.6-25.6,39.7-59.6,39.7-95.7c0-36.2-14.1-70.2-39.7-95.7c-52.8-52.8-138.7-52.8-191.5,0c-25.6,25.6-39.7,59.6-39.7,95.7
				c0,36.2,14.1,70.2,39.7,95.7c10.8,10.8,23.1,19.6,36.7,26.2c1.3,0.6,1.8,2.2,1.2,3.5c-0.6,1.3-2.2,1.8-3.5,1.2
				c-14.1-6.8-27-16-38.2-27.2C112,519,97.4,483.7,97.4,446.1c0-37.5,14.6-72.8,41.2-99.4c54.8-54.8,144-54.8,198.8,0
				c26.6,26.5,41.2,61.8,41.2,99.4s-14.6,72.8-41.2,99.4c-11.2,11.2-24,20.3-38.2,27.2C298.8,572.9,298.5,573,298.1,573z"/>
		</g>
	</g>
	<g>
		<g>
			<path fill="#FCFFEB" d="M587.6,201.9C587.6,201.9,587.6,201.9,587.6,201.9c-19.7,0-38.7-8.4-52-23c-0.7-0.7-0.9-1.8-0.5-2.7
				c0.4-0.9,1.2-1.6,2.2-1.6c18.3-1.6,37.3-4,56.5-7.3c19.2-3.2,37.9-7.2,55.7-11.7c1-0.2,2,0.1,2.6,0.8s0.8,1.8,0.4,2.7
				c-9.5,22.1-29.4,37.8-53.1,41.8C595.5,201.6,591.6,201.9,587.6,201.9z M543.2,179.2c12,11.2,28,17.5,44.4,17.5c0,0,0,0,0,0
				c3.6,0,7.3-0.3,10.9-0.9c20.2-3.4,37.4-15.9,46.8-33.8c-16.3,4-33.4,7.5-50.8,10.5C577.2,175.4,560,177.6,543.2,179.2z"/>
		</g>
		<g>
			<path fill="#FCFFEB" d="M493.7,181.7C493.7,181.7,493.7,181.7,493.7,181.7c-27.1,0-73-2.8-76.2-21.6c-3.7-21.8,53-44.2,107.2-58
				c0.9-0.2,2,0.1,2.6,0.8c0.6,0.8,0.8,1.8,0.4,2.7c-1.6,3.6-2.8,7.3-3.6,11.1c-0.2,0.9-0.8,1.6-1.7,1.9
				c-25.9,9.1-36.7,18-35.9,22.8c0.7,4.1,10.8,9.1,37.2,9.7c19,0.4,42.4-1.5,66.5-5.6c24-4.1,46.9-9.9,64.6-16.6
				c24.6-9.2,32.6-17.3,31.9-21.4c-0.8-4.8-13.9-9.6-41.4-9.7c-0.9,0-1.7-0.5-2.2-1.2c-2.1-3.3-4.4-6.4-7.1-9.3
				c-0.7-0.7-0.9-1.8-0.5-2.7c0.4-0.9,1.2-1.6,2.2-1.6c15.6-1.3,30.4-2,44.1-2c27.1,0,73.1,2.8,76.2,21.6c3.7,21.8-53,44.2-107.2,58
				c-17.9,4.6-36.8,8.5-56.1,11.8c-19.3,3.3-38.4,5.7-56.9,7.3C522.1,181.1,507.3,181.7,493.7,181.7z M521,108.4
				c-67.3,17.7-100.5,38.8-98.5,50.9c1.4,8.4,20.8,17.3,71.1,17.3c0,0,0,0,0,0c13.5,0,28.1-0.7,43.6-2c18.3-1.6,37.3-4,56.5-7.3
				c19.2-3.2,37.9-7.2,55.7-11.7c70.6-17.9,105.4-39.8,103.4-52.1c-1.4-8.4-20.8-17.3-71.1-17.3c-12,0-25,0.5-38.6,1.6
				c1.3,1.6,2.4,3.2,3.6,4.9c19.8,0.2,43.2,2.9,45.1,14.1c1.8,10.8-18.1,20.7-35.2,27.1c-18,6.7-41.3,12.7-65.6,16.8
				c-24.4,4.1-48.2,6.1-67.5,5.7c-18.2-0.4-40.3-3.2-42.1-14c-1.9-11.2,19.3-21.4,38-28.1C519.8,112.3,520.4,110.3,521,108.4z"/>
		</g>
		<g>
			<path fill="#FCFFEB" d="M655.6,134c-0.5,0-1-0.2-1.5-0.5c-0.7-0.5-1.1-1.3-1.1-2.1c0-3.7-0.3-7.4-0.9-10.9
				c-1.4-8.5-4.5-16.6-9.1-23.9c-0.5-0.8-0.5-1.8-0.1-2.6c0.5-0.8,1.3-1.3,2.3-1.3c0,0,0,0,0,0c20.1,0.1,44.5,2.6,46.5,14.1
				c1.8,10.8-18.1,20.7-35.2,27.1C656.2,133.9,655.9,134,655.6,134z M649.8,97.9c3.6,6.8,6.1,14,7.4,21.7c0.4,2.6,0.7,5.3,0.9,8
				c22-8.7,29.2-16.2,28.5-20.1C685.9,103.1,674.1,98.5,649.8,97.9z"/>
		</g>
		<g>
			<path fill="#FCFFEB" d="M523.5,156.3C523.5,156.3,523.5,156.3,523.5,156.3c-18.3-0.4-40.4-3.2-42.2-14
				c-1.9-11.5,20.3-21.9,39.3-28.5c0.9-0.3,1.9-0.1,2.6,0.5c0.7,0.6,1,1.6,0.8,2.5c-1.9,8.4-2.2,17-0.7,25.5
				c0.6,3.6,1.5,7.1,2.7,10.6c0.3,0.8,0.1,1.7-0.4,2.4C525.1,155.9,524.4,156.3,523.5,156.3z M518.1,120.2
				c-22.8,8.6-32.4,16.8-31.6,21.2c0.7,3.9,9.9,8.6,33.5,9.6c-0.8-2.6-1.4-5.2-1.8-7.9C516.9,135.5,516.8,127.8,518.1,120.2z"/>
		</g>
		<g>
			<path fill="#FCFFEB" d="M528.9,156.3L528.9,156.3c-1.9,0-3.7,0-5.4-0.1c-1.1,0-2-0.7-2.4-1.7c-1.3-3.7-2.3-7.6-2.9-11.4
				c-1.6-9.2-1.3-18.5,0.8-27.5c0.9-4.1,2.3-8.1,3.9-12c9.5-22.1,29.3-37.8,53.1-41.8c23.5-3.9,47.8,4.5,63.8,22
				c2.9,3.1,5.4,6.5,7.6,10c4.9,7.9,8.2,16.5,9.8,25.7c0.6,3.8,1,7.7,1,11.7c0,1.1-0.7,2.1-1.7,2.4c-18,6.7-41.3,12.7-65.6,16.8
				C568.8,154.4,547.3,156.3,528.9,156.3z M525.4,151.1c18.8,0.3,41.3-1.7,64.7-5.6c23.2-3.9,45.5-9.6,62.9-15.9
				c-0.1-3.1-0.4-6.2-0.9-9.1c-1.4-8.5-4.5-16.6-9.1-23.9c-2.1-3.3-4.4-6.4-7.1-9.3c-14.9-16.3-37.4-24.1-59.1-20.4
				c-22,3.7-40.3,18.2-49.2,38.7c-1.6,3.6-2.8,7.3-3.6,11.1c-1.9,8.4-2.2,17-0.7,25.5C523.8,145.2,524.5,148.2,525.4,151.1z"/>
		</g>
	</g>
	<g>
		<path fill="#FCFFEB" d="M1244.8,220.7c-19.9,0-38.9-9.5-50.8-25.5c-20.8-28-14.9-67.7,13-88.5c11-8.2,24-12.5,37.7-12.5
			c19.9,0,38.9,9.5,50.8,25.5c20.8,28,14.9,67.7-13,88.5C1271.5,216.4,1258.4,220.7,1244.8,220.7z M1244.7,99.4
			c-12.5,0-24.5,4-34.6,11.5c-25.7,19.1-31.1,55.5-12,81.2c11.1,14.9,28.1,23.4,46.7,23.4c12.5,0,24.5-4,34.6-11.5
			c25.7-19.1,31.1-55.5,12-81.2C1280.3,107.9,1263.3,99.4,1244.7,99.4z"/>
	</g>
	<g>
		<path fill="#FCFFEB" d="M1282.9,131.6c-0.8,0-1.6-0.4-2.1-1c-14.8-19.9-43.1-24.1-63-9.3c-1.2,0.8-2.8,0.6-3.6-0.5
			c-0.9-1.1-0.6-2.8,0.5-3.6c22.2-16.5,53.7-11.9,70.2,10.4c0.9,1.1,0.6,2.8-0.5,3.6C1284,131.5,1283.5,131.6,1282.9,131.6z"/>
	</g>
	<g>
		<path fill="#FCFFEB" d="M1133.1,158c-4.8,0-9.4-2.3-12.2-6.1c-5-6.7-3.6-16.3,3.1-21.3c6.5-4.8,16.5-3.3,21.3,3.1
			c2.4,3.3,3.4,7.3,2.8,11.3c-0.6,4-2.7,7.6-6,10C1139.5,157,1136.4,158,1133.1,158z M1133.1,132.7c-2.2,0-4.2,0.7-6,2
			c-4.4,3.3-5.4,9.6-2.1,14.1c3.2,4.3,9.7,5.3,14.1,2.1c2.2-1.6,3.6-3.9,4-6.6c0.4-2.7-0.3-5.3-1.9-7.5
			C1139.3,134.2,1136.3,132.7,1133.1,132.7z"/>
	</g>
	<g>
		<path fill="#FCFFEB" d="M1133.1,883.9c-4.8,0-9.4-2.3-12.2-6.1c-5-6.7-3.6-16.3,3.1-21.3c6.5-4.8,16.5-3.3,21.3,3.1
			c2.4,3.3,3.4,7.3,2.8,11.3c-0.6,4-2.7,7.6-6,10C1139.5,882.8,1136.4,883.9,1133.1,883.9z M1133.1,858.6c-2.2,0-4.2,0.7-6,2
			c-4.4,3.3-5.4,9.6-2.1,14.1c3.2,4.3,9.7,5.3,14.1,2.1c2.2-1.6,3.6-3.9,4-6.6c0.4-2.7-0.3-5.3-1.9-7.5
			C1139.3,860.1,1136.3,858.6,1133.1,858.6z"/>
	</g>
	<g>
		<path fill="#FCFFEB" d="M1008.3,510.3c-4.8,0-9.4-2.3-12.2-6.1c-2.4-3.3-3.4-7.3-2.8-11.3c0.6-4,2.7-7.6,6-10
			c6.5-4.8,16.5-3.3,21.3,3.1c5,6.7,3.6,16.3-3.1,21.3C1014.7,509.2,1011.6,510.3,1008.3,510.3z M1008.3,485c-2.2,0-4.2,0.7-6,2
			c-2.2,1.6-3.6,3.9-3.9,6.6c-0.4,2.7,0.3,5.3,1.9,7.5c3.2,4.3,9.7,5.3,14.1,2.1c4.4-3.3,5.4-9.6,2.1-14.1
			C1014.4,486.5,1011.5,485,1008.3,485z"/>
	</g>
	<g>
		<path fill="#FCFFEB" d="M755.5,844.1c-4.8,0-9.4-2.3-12.2-6.1c-5-6.7-3.6-16.3,3.1-21.3c6.5-4.8,16.5-3.3,21.3,3.1
			c5,6.7,3.6,16.3-3.1,21.3C761.9,843.1,758.8,844.1,755.5,844.1z M755.5,818.9c-2.2,0-4.2,0.7-6,2c-4.4,3.3-5.4,9.6-2.1,14.1
			c3.2,4.3,9.7,5.3,14.1,2.1c4.4-3.3,5.4-9.6,2.1-14.1C761.7,820.4,758.7,818.9,755.5,818.9z"/>
	</g>
	<g>
		<path fill="#FCFFEB" d="M804,192.9c-4.8,0-9.4-2.3-12.2-6.1c-5-6.7-3.6-16.3,3.1-21.3c6.5-4.8,16.5-3.3,21.3,3.1
			c5,6.7,3.6,16.3-3.1,21.3C810.4,191.8,807.3,192.9,804,192.9z M804,167.6c-2.2,0-4.2,0.7-6,2c-4.4,3.3-5.4,9.6-2.1,14.1
			c3.2,4.3,9.7,5.3,14.1,2.1c4.4-3.3,5.4-9.6,2.1-14.1C810.1,169.1,807.2,167.6,804,167.6z"/>
	</g>
	<g>
		<path fill="#FCFFEB" d="M100,785.8c-4.8,0-9.4-2.3-12.2-6.1c-5-6.7-3.6-16.3,3.1-21.3c6.5-4.8,16.5-3.3,21.3,3.1
			c5,6.7,3.6,16.3-3.1,21.3C106.4,784.7,103.3,785.8,100,785.8z M100,760.5c-2.2,0-4.2,0.7-6,2c-4.4,3.3-5.4,9.6-2.1,14.1
			c3.2,4.3,9.7,5.3,14.1,2.1c4.4-3.3,5.4-9.6,2.1-14.1C106.1,762,103.2,760.5,100,760.5z"/>
	</g>
	<g>
		<path fill="#FCFFEB" d="M392,614.7c-4.8,0-9.4-2.3-12.2-6.1c-5-6.7-3.6-16.3,3.1-21.3c6.5-4.8,16.5-3.3,21.3,3.1
			c5,6.7,3.6,16.3-3.1,21.3C398.4,613.6,395.3,614.7,392,614.7z M392,589.4c-2.2,0-4.2,0.7-6,2c-4.4,3.3-5.4,9.6-2.1,14.1
			c3.2,4.3,9.7,5.3,14.1,2.1c4.4-3.3,5.4-9.6,2.1-14.1C398.1,590.9,395.2,589.4,392,589.4z"/>
	</g>
	<g>
		<path fill="#FCFFEB" d="M1253.5,286.4c-6.7,0-13-3.2-17-8.5c-6.9-9.3-5-22.6,4.4-29.5c3.7-2.7,8-4.2,12.6-4.2c6.7,0,13,3.2,17,8.5
			c3.4,4.5,4.8,10.1,3.9,15.7c-0.8,5.6-3.8,10.5-8.3,13.9C1262.4,285,1258.1,286.4,1253.5,286.4z M1253.5,249.4
			c-3.4,0-6.7,1.1-9.5,3.1c-7.1,5.2-8.5,15.3-3.3,22.3c3,4.1,7.7,6.4,12.8,6.4c3.4,0,6.7-1.1,9.5-3.1c3.4-2.5,5.6-6.3,6.3-10.5
			c0.6-4.2-0.4-8.4-3-11.8C1263.3,251.7,1258.6,249.4,1253.5,249.4z"/>
	</g>
	<g>
		<path fill="#FCFFEB" d="M312.3,276.2c-1.2,0-2.2-0.8-2.5-2l-11.3-46.6c-6.3-3.1-11.3-8.1-14.4-14.4l-46.7-11.3
			c-1.2-0.3-2-1.3-2-2.5c0-1.2,0.8-2.2,2-2.5l46.6-11.3c3.1-6.3,8.1-11.3,14.4-14.4l11.3-46.6c0.6-2.3,4.5-2.3,5,0l11.3,46.6
			c6.3,3.1,11.3,8.1,14.4,14.4l46.6,11.3c1.2,0.3,2,1.3,2,2.5c0,1.2-0.8,2.2-2,2.5l-46.6,11.3c-3.1,6.3-8.1,11.3-14.4,14.4
			l-11.3,46.6C314.5,275.4,313.5,276.2,312.3,276.2z M248.9,199.3l37.5,9.1c0.8,0.2,1.4,0.7,1.8,1.5c2.7,6,7.5,10.8,13.5,13.5
			c0.7,0.3,1.3,1,1.5,1.8l9.1,37.5l9.1-37.5c0.2-0.8,0.7-1.4,1.5-1.8c6-2.7,10.8-7.5,13.5-13.5c0.3-0.7,1-1.3,1.8-1.5l37.5-9.1
			l-37.5-9.1c-0.8-0.2-1.4-0.7-1.8-1.5c-2.7-6-7.5-10.8-13.5-13.5c-0.7-0.3-1.3-1-1.5-1.8l-9.1-37.5l-9.1,37.5
			c-0.2,0.8-0.7,1.4-1.5,1.8c-6,2.7-10.8,7.4-13.5,13.5c-0.3,0.7-1,1.3-1.8,1.5L248.9,199.3z"/>
	</g>
	<g>
		<path fill="#FCFFEB" d="M133.6,245.8c-1.2,0-2.2-0.8-2.5-2l-8.5-34.9c-4.7-2.4-8.4-6.1-10.8-10.8l-34.9-8.5c-1.2-0.3-2-1.3-2-2.5
			c0-1.2,0.8-2.2,2-2.5l34.9-8.5c2.4-4.7,6.1-8.4,10.8-10.8l8.5-34.9c0.6-2.3,4.5-2.3,5,0l8.5,34.9c4.7,2.4,8.4,6.1,10.8,10.8
			l34.9,8.5c1.2,0.3,2,1.3,2,2.5c0,1.2-0.8,2.2-2,2.5l-34.9,8.5c-2.4,4.7-6.1,8.4-10.8,10.8l-8.5,34.9
			C135.8,245,134.8,245.8,133.6,245.8z M88.5,187.1l25.8,6.3c0.8,0.2,1.4,0.7,1.8,1.5c1.9,4.4,5.4,7.9,9.9,9.9
			c0.7,0.3,1.3,1,1.5,1.8l6.3,25.8l6.2-25.8c0.2-0.8,0.7-1.4,1.5-1.8c4.4-1.9,7.9-5.4,9.9-9.9c0.3-0.7,1-1.3,1.8-1.5l25.8-6.3
			l-25.8-6.3c-0.8-0.2-1.4-0.7-1.8-1.5c-1.9-4.4-5.4-7.9-9.9-9.9c-0.7-0.3-1.3-1-1.5-1.8l-6.2-25.8l-6.3,25.8
			c-0.2,0.8-0.7,1.4-1.5,1.8c-4.4,1.9-7.9,5.4-9.9,9.9c-0.3,0.7-1,1.3-1.8,1.5L88.5,187.1z"/>
	</g>
	<g>
		<path fill="#FCFFEB" d="M636,897.6c-1.2,0-2.2-0.8-2.5-2l-8.5-34.9c-4.7-2.4-8.4-6.1-10.8-10.8l-34.9-8.5c-1.2-0.3-2-1.3-2-2.5
			s0.8-2.2,2-2.5l34.9-8.5c2.4-4.7,6.1-8.4,10.8-10.8l8.5-34.9c0.6-2.3,4.5-2.3,5,0l8.5,34.9c4.7,2.3,8.4,6.1,10.8,10.8l34.9,8.5
			c1.2,0.3,2,1.3,2,2.5s-0.8,2.2-2,2.5l-34.9,8.5c-2.4,4.7-6.1,8.4-10.8,10.8l-8.5,34.9C638.2,896.8,637.2,897.6,636,897.6z
			 M590.9,838.9l25.8,6.3c0.8,0.2,1.4,0.7,1.8,1.5c1.9,4.4,5.4,7.9,9.9,9.9c0.7,0.3,1.3,1,1.5,1.8L636,884l6.2-25.8
			c0.2-0.8,0.7-1.4,1.5-1.8c4.4-1.9,7.9-5.4,9.9-9.9c0.3-0.7,1-1.3,1.8-1.5l25.8-6.3l-25.8-6.3c-0.8-0.2-1.4-0.7-1.8-1.5
			c-1.9-4.4-5.4-7.9-9.9-9.9c-0.7-0.3-1.3-1-1.5-1.8l-6.2-25.8l-6.3,25.8c-0.2,0.8-0.7,1.4-1.5,1.8c-4.4,1.9-7.9,5.4-9.9,9.9
			c-0.3,0.7-1,1.3-1.8,1.5L590.9,838.9z"/>
	</g>
	<g>
		<path fill="#FCFFEB" d="M427.1,310.7L427.1,310.7c-1.2,0-2.2-0.8-2.5-2l-5.2-21.5c-2.8-1.5-5.1-3.8-6.6-6.6l-21.5-5.2
			c-1.2-0.3-2-1.3-2-2.5s0.8-2.2,2-2.5l21.5-5.2c1.5-2.8,3.8-5.1,6.6-6.6l5.2-21.5c0.6-2.3,4.5-2.3,5,0l5.2,21.5
			c2.8,1.5,5.1,3.8,6.6,6.6l21.5,5.2c1.2,0.3,2,1.3,2,2.5s-0.8,2.2-2,2.5l-21.5,5.2c-1.5,2.8-3.8,5.1-6.6,6.6l-5.2,21.5
			C429.4,309.9,428.3,310.7,427.1,310.7z M403,273l12.3,3c0.8,0.2,1.4,0.7,1.8,1.5c1.1,2.6,3.1,4.6,5.7,5.7c0.7,0.3,1.3,1,1.5,1.8
			l3,12.3l3-12.3c0.2-0.8,0.7-1.4,1.5-1.8c2.5-1.1,4.6-3.1,5.7-5.7c0.3-0.7,1-1.3,1.8-1.5l12.3-3l-12.3-3c-0.8-0.2-1.4-0.7-1.8-1.5
			c-1.1-2.5-3.1-4.6-5.7-5.7c-0.7-0.3-1.3-1-1.5-1.8l-3-12.3l-3,12.3c-0.2,0.8-0.7,1.4-1.5,1.8c-2.5,1.1-4.6,3.1-5.7,5.7
			c-0.3,0.7-1,1.3-1.8,1.5L403,273z"/>
	</g>
	<g>
		<path fill="#FCFFEB" d="M1244.7,876.7L1244.7,876.7c-1.2,0-2.2-0.8-2.5-2l-5.2-21.5c-2.8-1.5-5.1-3.8-6.6-6.6l-21.5-5.2
			c-1.2-0.3-2-1.3-2-2.5c0-1.2,0.8-2.2,2-2.5l21.5-5.2c1.5-2.8,3.8-5.1,6.6-6.6l5.2-21.5c0.6-2.3,4.5-2.3,5,0l5.2,21.5
			c2.8,1.5,5.1,3.8,6.6,6.6l21.5,5.2c1.2,0.3,2,1.3,2,2.5c0,1.2-0.8,2.2-2,2.5l-21.5,5.2c-1.5,2.8-3.8,5.1-6.6,6.6l-5.2,21.5
			C1247,875.8,1245.9,876.7,1244.7,876.7z M1220.5,838.9l12.3,3c0.8,0.2,1.4,0.7,1.8,1.5c1.1,2.5,3.1,4.6,5.7,5.7
			c0.7,0.3,1.3,1,1.5,1.8l3,12.3l3-12.3c0.2-0.8,0.7-1.4,1.5-1.8c2.5-1.1,4.6-3.1,5.7-5.7c0.3-0.7,1-1.3,1.8-1.5l12.3-3l-12.3-3
			c-0.8-0.2-1.4-0.7-1.8-1.5c-1.1-2.5-3.1-4.6-5.7-5.7c-0.7-0.3-1.3-1-1.5-1.8l-3-12.3l-3,12.3c-0.2,0.8-0.7,1.4-1.5,1.8
			c-2.5,1.1-4.6,3.1-5.7,5.7c-0.3,0.7-1,1.3-1.8,1.5L1220.5,838.9z"/>
	</g>
	<g>
		<path fill="#FCFFEB" d="M125.3,718.3L125.3,718.3c-1.2,0-2.2-0.8-2.5-2l-5.2-21.5c-2.8-1.5-5.1-3.8-6.6-6.6l-21.5-5.2
			c-1.2-0.3-2-1.3-2-2.5s0.8-2.2,2-2.5l21.5-5.2c1.5-2.8,3.8-5.1,6.6-6.6l5.2-21.5c0.6-2.3,4.5-2.3,5,0l5.2,21.5
			c2.8,1.5,5.1,3.8,6.6,6.6l21.5,5.2c1.2,0.3,2,1.3,2,2.5s-0.8,2.2-2,2.5l-21.5,5.2c-1.5,2.8-3.8,5.1-6.6,6.6l-5.2,21.5
			C127.5,717.5,126.5,718.3,125.3,718.3z M101.1,680.6l12.3,3c0.8,0.2,1.4,0.7,1.8,1.5c1.1,2.5,3.1,4.6,5.7,5.7
			c0.7,0.3,1.3,1,1.5,1.8l3,12.3l3-12.3c0.2-0.8,0.7-1.4,1.5-1.8c2.5-1.1,4.6-3.1,5.7-5.7c0.3-0.7,1-1.3,1.8-1.5l12.3-3l-12.3-3
			c-0.8-0.2-1.4-0.7-1.8-1.5c-1.1-2.5-3.1-4.6-5.7-5.7c-0.7-0.3-1.3-1-1.5-1.8l-3-12.3l-3,12.3c-0.2,0.8-0.7,1.4-1.5,1.8
			c-2.5,1.1-4.6,3.1-5.7,5.7c-0.3,0.7-1,1.3-1.8,1.5L101.1,680.6z"/>
	</g>
	<g>
		<g>
			<g>
				<path fill="#FCFFEB" d="M936.4,789.5c-0.1,0-0.3,0-0.4,0l-34-5c-0.8-0.1-1.5-0.6-1.9-1.3c-0.4-0.7-0.5-1.5-0.2-2.2l14-36.4
					c0.4-1,1.3-1.6,2.3-1.7c1-0.1,2,0.5,2.4,1.5l20,41.3c0.4,0.9,0.3,1.9-0.2,2.7C938,789.1,937.2,789.5,936.4,789.5z M906,779.8
					l25.9,3.8l-15.3-31.6L906,779.8z"/>
			</g>
			<g>
				<path fill="#FCFFEB" d="M877.6,895.3c-0.5,0-1.1-0.2-1.5-0.5l-54-40.1c-1.1-0.8-1.4-2.5-0.5-3.6l18.2-24.7l-15.4-30.1
					c-0.5-1-0.3-2.2,0.5-3l21.9-21.4l8.4-10.6c0.1-0.1,0.2-0.3,0.3-0.4l17.7-22.5c0.6-0.7,1.4-1.1,2.3-1c14.7,1.7,39.8,4.6,42.3,5.9
					c1.2,0.6,1.7,2,1.2,3.2L906,779.8l30.8,4.5c0.8,0.1,1.5,0.6,1.9,1.4l14.6,27.7c0.2,0.3,0.3,0.6,0.3,1l3.9,40.2
					c0.1,0.3,0.2,0.6,0.2,1c0,1.5-1.3,2.6-2.6,2.6c-0.6,0-1.1-0.2-1.6-0.5l-16.6-11.8l-13.7,4.4c-0.3,0.1-0.6,0.1-1,0.1l-9.7-0.7
					l-0.4,8.3c0,0.3-0.1,0.6-0.2,0.8l-4,9.8l4,14.7c0.4,1.4-0.4,2.8-1.8,3.2l-31.8,8.8C878,895.2,877.8,895.3,877.6,895.3z
					 M841.7,862.9l36.4,27l28.1-7.8l-3.6-13c-0.1-0.5-0.1-1.1,0.1-1.7l4.1-10.2l0.5-10.5c0-0.7,0.4-1.3,0.9-1.8
					c0.5-0.5,1.2-0.7,1.9-0.6l11.9,0.9l14.4-4.6c0.8-0.3,1.6-0.1,2.3,0.4l13,9.3l-3.3-34.7l-13.7-26.1l-32.7-4.8
					c-0.8-0.1-1.5-0.6-1.9-1.3c-0.4-0.7-0.5-1.5-0.2-2.2l12.9-33.6c-6-1-22-3.1-36.8-4.7l-16.4,20.8l-0.1,10c0,0.5-0.2,1.1-0.5,1.5
					l-6.6,9.1l-5,9.8c-0.6,1.1-1.8,1.6-3,1.3l-11.3-3l-3.6,3.5l15.2,29.8c0.2,0.4,0.3,0.8,0.3,1.3c0,0,0,0,0,0l-0.6,16.3l5.8,8.1
					c0.3,0.5,0.5,1,0.5,1.5c0,0.7-0.3,1.3-0.8,1.8L841.7,862.9z M827.1,852l10.4,7.7l7.5-7.4l-5.1-7c-0.3-0.4-0.5-1-0.5-1.5
					c0,0,0-0.1,0-0.1l0.3-8.8L827.1,852z M837.6,787.9l6.4,1.7l4.3-8.3l6.3-8.7l0-2.5l-4.1,5.2L837.6,787.9z M875.6,841.5
					c-0.3,0-0.6-0.1-0.9-0.1l-11.8-4.2c-1.1-0.4-1.8-1.4-1.7-2.6l0.6-11.4l-10.1-2.3c-0.9-0.2-1.6-0.9-1.9-1.8l-3.7-12.4
					c-0.3-0.8-0.1-1.7,0.5-2.4c0.6-0.7,1.4-1,2.3-0.9l11.7,1.3l3.6-7l-0.7-16.4c-0.1-1.3,0.8-2.4,2-2.6l10.7-2.3
					c1.3-0.3,2.7,0.5,3,1.9l5,18.9l9.8,3.7c0.8,0.3,1.4,1,1.6,1.9l3.6,15.8c0.2,0.8,0,1.6-0.6,2.3l-6.3,7.3l-2.3,9.4
					c-0.2,1-1.1,1.8-2.1,1.9l-11.9,2.1C875.9,841.5,875.7,841.5,875.6,841.5z M866.4,832.9l9.4,3.3l9.6-1.7l2-8.4
					c0.1-0.4,0.3-0.8,0.6-1.1l5.9-6.8l-3-13.2l-9.8-3.6c-0.8-0.3-1.4-1-1.6-1.8l-4.7-17.9l-6.1,1.3l0.7,14.9c0,0.5-0.1,0.9-0.3,1.3
					l-4.7,9.2c-0.5,1-1.5,1.5-2.6,1.4l-9.6-1l2.2,7.2l10.7,2.4c1.2,0.3,2.1,1.4,2,2.7L866.4,832.9z"/>
			</g>
			<g>
				<path fill="#FCFFEB" d="M909.4,886.5c-0.4,0-0.9-0.1-1.3-0.3c-0.6-0.3-1-0.9-1.2-1.6l-4.2-15.5c-0.1-0.5-0.1-1.1,0.1-1.7
					l4.1-10.2l0.5-10.5c0-0.7,0.4-1.3,0.9-1.8c0.5-0.5,1.2-0.7,1.9-0.6l11.9,0.9l14.4-4.6c0.8-0.3,1.6-0.1,2.3,0.4l17.6,12.5
					c0.8,0.5,1.2,1.4,1.1,2.4c-0.1,0.9-0.7,1.7-1.5,2.1l-20.8,9.2l-22.5,18.4c-0.3,0.2-0.6,0.4-0.9,0.5l-1.6,0.5
					C909.9,886.4,909.6,886.5,909.4,886.5z M907.9,868.5l3.2,11.5l21.1-17.3c0.2-0.1,0.4-0.3,0.6-0.4l17-7.5l-12.9-9.2l-13.7,4.4
					c-0.3,0.1-0.6,0.1-1,0.1l-9.7-0.7l-0.4,8.3c0,0.3-0.1,0.6-0.2,0.8L907.9,868.5z"/>
			</g>
			<g>
				<path fill="#FCFFEB" d="M875.6,841.5c-0.3,0-0.6-0.1-0.9-0.1l-11.8-4.2c-1.1-0.4-1.8-1.4-1.7-2.6l0.6-11.4l-10.1-2.3
					c-0.9-0.2-1.6-0.9-1.9-1.8l-3.7-12.4c-0.3-0.8-0.1-1.7,0.5-2.4c0.6-0.7,1.4-1,2.3-0.9l11.7,1.3l3.6-7l-0.7-16.4
					c-0.1-1.3,0.8-2.4,2-2.6l10.7-2.3c1.3-0.3,2.7,0.5,3,1.9l5,18.9l9.8,3.7c0.8,0.3,1.4,1,1.6,1.9l3.6,15.8c0.2,0.8,0,1.6-0.6,2.3
					l-6.3,7.3l-2.3,9.4c-0.2,1-1.1,1.8-2.1,1.9l-11.9,2.1C875.9,841.5,875.7,841.5,875.6,841.5z M866.4,832.9l9.4,3.3l9.6-1.7l2-8.4
					c0.1-0.4,0.3-0.8,0.6-1.1l5.9-6.8l-3-13.2l-9.8-3.6c-0.8-0.3-1.4-1-1.6-1.8l-4.7-17.9l-6.1,1.3l0.7,14.9c0,0.5-0.1,0.9-0.3,1.3
					l-4.7,9.2c-0.5,1-1.5,1.5-2.6,1.4l-9.6-1l2.2,7.2l10.7,2.4c1.2,0.3,2.1,1.4,2,2.7L866.4,832.9z"/>
			</g>
		</g>
		<g>
			<g>
				<path fill="#FCFFEB" d="M954,848.9c-1,0-2-0.6-2.4-1.7c-0.5-1.3,0.2-2.8,1.5-3.3l108.4-40.8c1.3-0.5,2.8,0.2,3.3,1.5
					c0.5,1.3-0.2,2.8-1.5,3.3L955,848.8C954.7,848.9,954.4,848.9,954,848.9z"/>
			</g>
			<g>
				<path fill="#FCFFEB" d="M950.4,815.7c-1,0-2-0.6-2.4-1.7c-0.5-1.3,0.2-2.8,1.5-3.3l59.4-22.4c1.3-0.5,2.8,0.2,3.3,1.5
					c0.5,1.3-0.2,2.8-1.5,3.3l-59.4,22.4C951,815.6,950.7,815.7,950.4,815.7z"/>
			</g>
			<g>
				<path fill="#FCFFEB" d="M1042.3,781.1c-1,0-2-0.6-2.4-1.7c-0.5-1.3,0.2-2.8,1.5-3.3l142-53.4c1.3-0.5,2.8,0.2,3.3,1.5
					c0.5,1.3-0.2,2.8-1.5,3.3l-142,53.4C1042.9,781,1042.6,781.1,1042.3,781.1z"/>
			</g>
			<g>
				<path fill="#FCFFEB" d="M935.2,786.7c-1,0-2-0.6-2.4-1.7c-0.5-1.3,0.2-2.8,1.5-3.3L1270,655.4c1.3-0.5,2.8,0.2,3.3,1.5
					c0.5,1.3-0.2,2.8-1.5,3.3L936.1,786.6C935.8,786.7,935.5,786.7,935.2,786.7z"/>
			</g>
			<g>
				<path fill="#FCFFEB" d="M920.9,757.4c-1,0-2-0.6-2.4-1.7c-0.5-1.3,0.2-2.8,1.5-3.3l135.3-50.9c1.3-0.5,2.8,0.2,3.3,1.5
					c0.5,1.3-0.2,2.8-1.5,3.3l-135.3,50.9C921.5,757.4,921.2,757.4,920.9,757.4z"/>
			</g>
			<g>
				<path fill="#FCFFEB" d="M1105.6,791.9c-1,0-2-0.6-2.4-1.7c-0.5-1.3,0.2-2.8,1.5-3.3l51.4-19.3c1.3-0.5,2.8,0.2,3.3,1.5
					c0.5,1.3-0.2,2.8-1.5,3.3l-51.4,19.3C1106.2,791.9,1105.9,791.9,1105.6,791.9z"/>
			</g>
			<g>
				<path fill="#FCFFEB" d="M1203.1,755.2c-1,0-2-0.6-2.4-1.7c-0.5-1.3,0.2-2.8,1.5-3.3l45.3-17.1c1.3-0.5,2.8,0.2,3.3,1.5
					c0.5,1.3-0.2,2.8-1.5,3.3l-45.3,17.1C1203.7,755.2,1203.4,755.2,1203.1,755.2z"/>
			</g>
			<g>
				<path fill="#FCFFEB" d="M1283.2,725.1c-1,0-2-0.6-2.4-1.7c-0.5-1.3,0.2-2.8,1.5-3.3l27.2-10.2c1.3-0.5,2.8,0.2,3.3,1.5
					c0.5,1.3-0.2,2.8-1.5,3.3l-27.2,10.2C1283.8,725,1283.5,725.1,1283.2,725.1z"/>
			</g>
			<g>
				<path fill="#FCFFEB" d="M1210.4,717.8c-1,0-2-0.6-2.4-1.7c-0.5-1.3,0.2-2.8,1.5-3.3l30.6-11.5c1.3-0.5,2.8,0.2,3.3,1.5
					c0.5,1.3-0.2,2.8-1.5,3.3l-30.6,11.5C1211,717.8,1210.7,717.8,1210.4,717.8z"/>
			</g>
			<g>
				<path fill="#FCFFEB" d="M1287.5,654.2c-1,0-2-0.6-2.4-1.7c-0.5-1.3,0.2-2.8,1.5-3.3l20.4-7.7c1.3-0.5,2.8,0.2,3.3,1.5
					c0.5,1.3-0.2,2.8-1.5,3.3l-20.4,7.7C1288.2,654.1,1287.9,654.2,1287.5,654.2z"/>
			</g>
			<g>
				<path fill="#FCFFEB" d="M1080.4,697.5c-1,0-2-0.6-2.4-1.7c-0.5-1.3,0.2-2.8,1.5-3.3l38-14.3c1.3-0.5,2.8,0.2,3.3,1.5
					c0.5,1.3-0.2,2.8-1.5,3.3l-38,14.3C1081,697.4,1080.7,697.5,1080.4,697.5z"/>
			</g>
			<g>
				<path fill="#FCFFEB" d="M1142.4,674.1c-1,0-2-0.6-2.4-1.7c-0.5-1.3,0.2-2.8,1.5-3.3l43.5-16.3c1.3-0.5,2.8,0.2,3.3,1.5
					c0.5,1.3-0.2,2.8-1.5,3.3l-43.5,16.3C1143,674.1,1142.7,674.1,1142.4,674.1z"/>
			</g>
			<g>
				<path fill="#FCFFEB" d="M1207.7,649.5c-1,0-2-0.6-2.4-1.7c-0.5-1.3,0.2-2.8,1.5-3.3l20.4-7.7c1.3-0.5,2.8,0.2,3.3,1.5
					c0.5,1.3-0.2,2.8-1.5,3.3l-20.4,7.7C1208.3,649.5,1208,649.5,1207.7,649.5z"/>
			</g>
		</g>
	</g>
	<g>
		<g>
			<path fill="#FCFFEB" d="M256.1,757.2c-1.2,0-2.2-0.8-2.5-2c-0.2-0.8-0.3-1.6-0.3-2.3c0-0.8,0.1-1.7,0.4-2.7
				c0.4-1.2,1.6-2,2.9-1.8c1.3,0.2,2.2,1.4,2.1,2.7c0,1.2-0.1,2.3-0.1,3.5c0,1.3-1,2.4-2.3,2.5C256.3,757.2,256.2,757.2,256.1,757.2
				z"/>
		</g>
		<g>
			<path fill="#FCFFEB" d="M353.4,818.8c-96.1,0-195.6-19.2-195.6-51.2c0-19.5,38.4-36.4,102.7-45.3c0.9-0.1,1.8,0.2,2.3,0.9
				c0.6,0.7,0.8,1.6,0.5,2.5c-2.7,8.3-4.2,16.8-4.5,25.4c0,1-0.1,2.1-0.1,3.1c3.3,10.1,41.8,20.7,94.7,20.7
				c53.4,0,92.1-10.9,94.8-21c0.1-0.4,0.2-0.7,0.2-1c0-0.3-0.1-0.7-0.2-1.2c-0.1-0.2-0.1-0.4-0.1-0.7c-0.3-8.6-1.9-17.2-4.5-25.4
				c-0.3-0.8-0.1-1.8,0.5-2.5c0.6-0.7,1.4-1,2.3-0.9c64.3,8.9,102.7,25.8,102.7,45.3C549,799.7,449.5,818.8,353.4,818.8z M257.2,728
				c-57.4,8.4-94.2,23.8-94.2,39.6c0,22.2,76.5,46.1,190.4,46.1c113.9,0,190.4-23.8,190.4-46.1c0-15.8-36.8-31.2-94.2-39.6
				c2.1,7.4,3.3,14.9,3.6,22.6c0.2,0.8,0.3,1.6,0.3,2.4c0,0.7-0.1,1.4-0.3,2.3c-4.3,16.4-53.4,24.9-99.8,24.9
				c-46.4,0-95.5-8.5-99.8-24.9c-0.1-0.2-0.1-0.4-0.1-0.7c0-1.2,0-2.4,0.1-3.6C253.9,743.2,255.1,735.5,257.2,728z"/>
		</g>
		<g>
			<path fill="#FCFFEB" d="M450.7,757.2c-0.1,0-0.2,0-0.3,0c-1.3-0.2-2.3-1.3-2.3-2.6c0-1.2,0-2.3-0.1-3.5c-0.1-1.3,0.9-2.4,2.1-2.7
				c1.3-0.2,2.5,0.5,2.9,1.8c0.3,1,0.4,1.8,0.4,2.7c0,0.7-0.1,1.4-0.3,2.3C452.9,756.4,451.8,757.2,450.7,757.2z"/>
		</g>
		<g>
			<path fill="#FCFFEB" d="M353.4,780.1c-46.4,0-95.5-8.5-99.8-24.9c-0.1-0.2-0.1-0.4-0.1-0.7c0-1.2,0-2.4,0.1-3.6
				c0.3-9.1,2-18.1,4.8-26.8c13.4-41.3,51.5-69.1,95-69.1s81.6,27.8,95,69.1c2.8,8.7,4.4,17.7,4.8,26.8c0.1,1.2,0.1,2.4,0.1,3.6
				c0,0.2,0,0.4-0.1,0.7C448.9,771.6,399.8,780.1,353.4,780.1z M258.7,754.2c3.3,10.1,41.8,20.7,94.7,20.7
				c52.9,0,91.4-10.7,94.7-20.7c0-1,0-2.1-0.1-3.1c-0.3-8.6-1.9-17.2-4.5-25.4c-12.7-39.2-48.9-65.5-90.1-65.5
				c-41.2,0-77.4,26.3-90.1,65.5c-2.7,8.3-4.2,16.8-4.5,25.4C258.8,752.1,258.7,753.2,258.7,754.2z"/>
		</g>
		<g>
			<path fill="#FCFFEB" d="M353.5,859.1c-188.1-7.9-195.5-85.1-195.7-88.4c-0.1-1.4,1-2.7,2.4-2.8c1.4-0.1,2.7,1,2.8,2.4
				c0.1,0.7,7.8,75.9,190.5,83.5c182.5-7.6,190.2-82.8,190.3-83.5c0.1-1.4,1.4-2.5,2.8-2.4c1.4,0.1,2.5,1.3,2.4,2.7
				C548.8,774,541.4,851.2,353.5,859.1z"/>
		</g>
		<g>
			<path fill="#FCFFEB" d="M353.4,901.5c-1.4,0-2.6-1.2-2.6-2.6v-42.4c0-1.4,1.2-2.6,2.6-2.6s2.6,1.2,2.6,2.6v42.4
				C356,900.3,354.8,901.5,353.4,901.5z"/>
		</g>
		<g>
			<path fill="#FCFFEB" d="M423,888.9c-1.1,0-2.2-0.7-2.5-1.9l-10.1-35.3c-0.4-1.4,0.4-2.8,1.8-3.2c1.4-0.4,2.8,0.4,3.2,1.8
				l10.1,35.3c0.4,1.4-0.4,2.8-1.8,3.2C423.4,888.9,423.2,888.9,423,888.9z"/>
		</g>
		<g>
			<path fill="#FCFFEB" d="M440.3,888.9h-34.6c-1.4,0-2.6-1.2-2.6-2.6c0-1.4,1.2-2.6,2.6-2.6h34.6c1.4,0,2.6,1.2,2.6,2.6
				C442.9,887.7,441.7,888.9,440.3,888.9z"/>
		</g>
		<g>
			<path fill="#FCFFEB" d="M280.9,888.9c-0.2,0-0.5,0-0.7-0.1c-1.4-0.4-2.2-1.8-1.8-3.2l10.1-35.3c0.4-1.4,1.8-2.2,3.2-1.8
				c1.4,0.4,2.2,1.8,1.8,3.2L283.4,887C283.1,888.2,282.1,888.9,280.9,888.9z"/>
		</g>
		<g>
			<path fill="#FCFFEB" d="M298.3,888.9h-34.6c-1.4,0-2.6-1.2-2.6-2.6c0-1.4,1.2-2.6,2.6-2.6h34.6c1.4,0,2.6,1.2,2.6,2.6
				C300.8,887.7,299.7,888.9,298.3,888.9z"/>
		</g>
		<g>
			<path fill="#FCFFEB" d="M370.7,901.5h-34.6c-1.4,0-2.6-1.2-2.6-2.6s1.2-2.6,2.6-2.6h34.6c1.4,0,2.6,1.2,2.6,2.6
				S372.2,901.5,370.7,901.5z"/>
		</g>
	</g>
	<g>
		<g>
			<path fill="#FCFFEB" d="M1020.6,639.7c-15,0-28.2-9-33.7-23c-3.5-9-3.3-18.8,0.6-27.7c3.9-8.8,11-15.6,20-19.2
				c4.2-1.6,8.6-2.5,13.1-2.5c15,0,28.2,9,33.7,23c7.2,18.6-2,39.6-20.5,46.8C1029.5,638.9,1025.1,639.7,1020.6,639.7z
				 M1020.6,572.6c-3.8,0-7.6,0.7-11.3,2.1c-7.7,3-13.8,8.8-17.1,16.4c-3.3,7.6-3.5,16-0.5,23.7c4.7,12,16,19.7,28.9,19.7
				c3.8,0,7.6-0.7,11.2-2.1c15.9-6.2,23.8-24.2,17.6-40.1C1044.8,580.3,1033.5,572.6,1020.6,572.6z"/>
		</g>
		<g>
			<path fill="#FCFFEB" d="M1020.6,630.2c-3.6,0-7.3-0.8-10.7-2.3c-6.5-2.9-11.5-8.1-14.1-14.7c-0.5-1.3,0.1-2.8,1.5-3.4
				c1.3-0.5,2.8,0.1,3.4,1.5c2.1,5.3,6.1,9.5,11.4,11.8c5.2,2.3,11.1,2.4,16.4,0.3c1.3-0.5,2.8,0.1,3.3,1.5c0.5,1.3-0.1,2.8-1.5,3.4
				C1027.1,629.6,1023.9,630.2,1020.6,630.2z"/>
		</g>
		<g>
			<path fill="#FCFFEB" d="M1051.9,594c-1,0-2-0.6-2.4-1.6c-0.5-1.3,0.1-2.8,1.5-3.4l104.9-40.9c1.3-0.5,2.8,0.1,3.4,1.5
				c0.5,1.3-0.1,2.8-1.5,3.4l-104.9,40.9C1052.5,593.9,1052.2,594,1051.9,594z"/>
		</g>
		<g>
			<path fill="#FCFFEB" d="M1052.9,615.1c-1.3,0-2.4-1-2.6-2.3c-0.2-1.4,0.9-2.7,2.3-2.9l107.5-11.9c1.5-0.1,2.7,0.9,2.9,2.3
				c0.2,1.4-0.9,2.7-2.3,2.9l-107.5,11.9C1053.1,615.1,1053,615.1,1052.9,615.1z"/>
		</g>
		<g>
			<path fill="#FCFFEB" d="M1038.5,578.2c-0.8,0-1.6-0.4-2.1-1.1c-0.8-1.1-0.6-2.8,0.6-3.6l87.2-64.1c1.1-0.8,2.8-0.6,3.6,0.6
				c0.8,1.2,0.6,2.8-0.6,3.6l-87.2,64.1C1039.6,578,1039,578.2,1038.5,578.2z"/>
		</g>
	</g>
	<g>
		<path fill="#FCFFEB" d="M429.1,736.4c-1.2,0-2.3-0.8-2.5-2.1c-7-33.5-35.3-45.9-35.6-46c-1.3-0.6-1.9-2.1-1.4-3.4
			c0.6-1.3,2.1-1.9,3.4-1.4c1.3,0.5,31.1,13.5,38.7,49.7c0.3,1.4-0.6,2.8-2,3.1C429.5,736.4,429.3,736.4,429.1,736.4z"/>
	</g>
</g>
</svg>
